HIERARCHY
ROOT hip
{
  OFFSET 0 0 0
  CHANNELS 6 Xposition Yposition Zposition Zrotation Yrotation Xrotation
  JOINT abdomen
  {
    OFFSET 0 20.6881 -0.73152
    CHANNELS 3 Zrotation Xrotation Yrotation
    JOINT chest
    {
      OFFSET 0 11.7043 -0.48768
      CHANNELS 3 Zrotation Xrotation Yrotation
      JOINT neck
      {
        OFFSET 0 22.1894 -2.19456
        CHANNELS 3 Zrotation Xrotation Yrotation
        JOINT head
        {
          OFFSET -0.24384 7.07133 1.2192
          CHANNELS 3 Zrotation Xrotation Yrotation
          JOINT leftEye
          {
            OFFSET 4.14528 8.04674 8.04672
            CHANNELS 3 Zrotation Xrotation Yrotation
            End Site
            {
              OFFSET 1 0 0
            }
          }
          JOINT rightEye
          {
            OFFSET -3.6576 8.04674 8.04672
            CHANNELS 3 Zrotation Xrotation Yrotation
            End Site
            {
              OFFSET 1 0 0
            }
          }
        }
      }
      JOINT rCollar
      {
        OFFSET -2.68224 19.2634 -4.8768
        CHANNELS 3 Zrotation Xrotation Yrotation
        JOINT rShldr
        {
          OFFSET -8.77824 -1.95073 1.46304
          CHANNELS 3 Zrotation Xrotation Yrotation
          JOINT rForeArm
          {
            OFFSET -28.1742 -1.7115 0.48768
            CHANNELS 3 Zrotation Xrotation Yrotation
            JOINT rHand
            {
              OFFSET -22.5879 0.773209 7.07136
              CHANNELS 3 Zrotation Xrotation Yrotation
              JOINT rThumb1
              {
                OFFSET -1.2192 -0.487915 3.41376
                CHANNELS 3 Zrotation Xrotation Yrotation
                JOINT rThumb2
                {
                  OFFSET -3.37035 -0.52449 3.41376
                  CHANNELS 3 Zrotation Xrotation Yrotation
                  End Site
                  {
                    OFFSET -1.78271 -1.18214 1.43049
                  }
                }
              }
              JOINT rIndex1
              {
                OFFSET -7.75947 0.938293 5.60832
                CHANNELS 3 Zrotation Xrotation Yrotation
                JOINT rIndex2
                {
                  OFFSET -2.54057 -0.884171 1.56538
                  CHANNELS 3 Zrotation Xrotation Yrotation
                  End Site
                  {
                    OFFSET -1.62519 -0.234802 1.16502
                  }
                }
              }
              JOINT rMid1
              {
                OFFSET -8.24714 1.18213 3.41376
                CHANNELS 3 Zrotation Xrotation Yrotation
                JOINT rMid2
                {
                  OFFSET -3.10165 -0.590103 1.0647
                  CHANNELS 3 Zrotation Xrotation Yrotation
                  End Site
                  {
                    OFFSET -2.48547 -0.328903 0.83742
                  }
                }
              }
              JOINT rRing1
              {
                OFFSET -8.82822 0.546677 1.51678
                CHANNELS 3 Zrotation Xrotation Yrotation
                JOINT rRing2
                {
                  OFFSET -2.60934 -0.819778 -0.0198488
                  CHANNELS 3 Zrotation Xrotation Yrotation
                  End Site
                  {
                    OFFSET -2.33842 -0.294052 0.168128
                  }
                }
              }
              JOINT rPinky1
              {
                OFFSET -8.27202 -0.0477905 -0.4584
                CHANNELS 3 Zrotation Xrotation Yrotation
                JOINT rPinky2
                {
                  OFFSET -1.82734 -0.647385 -0.700984
                  CHANNELS 3 Zrotation Xrotation Yrotation
                  End Site
                  {
                    OFFSET -1.69225 -0.51767 -0.607171
                  }
                }
              }
            }
          }
        }
      }
      JOINT lCollar
      {
        OFFSET 2.68224 19.2634 -4.8768
        CHANNELS 3 Zrotation Xrotation Yrotation
        JOINT lShldr
        {
          OFFSET 8.77824 -1.95073 1.46304
          CHANNELS 3 Zrotation Xrotation Yrotation
          JOINT lForeArm
          {
            OFFSET 28.1742 -1.7115 0.48768
            CHANNELS 3 Zrotation Xrotation Yrotation
            JOINT lHand
            {
              OFFSET 22.5879 0.773209 7.07136
              CHANNELS 3 Zrotation Xrotation Yrotation
              JOINT lThumb1
              {
                OFFSET 1.2192 -0.487915 3.41376
                CHANNELS 3 Zrotation Xrotation Yrotation
                JOINT lThumb2
                {
                  OFFSET 3.37035 -0.52449 3.41376
                  CHANNELS 3 Zrotation Xrotation Yrotation
                  End Site
                  {
                    OFFSET 1.78271 -1.18214 1.43049
                  }
                }
              }
              JOINT lIndex1
              {
                OFFSET 7.75947 0.938293 5.60832
                CHANNELS 3 Zrotation Xrotation Yrotation
                JOINT lIndex2
                {
                  OFFSET 2.54057 -0.884171 1.56538
                  CHANNELS 3 Zrotation Xrotation Yrotation
                  End Site
                  {
                    OFFSET 1.62519 -0.234802 1.16502
                  }
                }
              }
              JOINT lMid1
              {
                OFFSET 8.24714 1.18213 3.41376
                CHANNELS 3 Zrotation Xrotation Yrotation
                JOINT lMid2
                {
                  OFFSET 3.10165 -0.590103 1.0647
                  CHANNELS 3 Zrotation Xrotation Yrotation
                  End Site
                  {
                    OFFSET 2.48547 -0.328903 0.83742
                  }
                }
              }
              JOINT lRing1
              {
                OFFSET 8.82822 0.546677 1.51678
                CHANNELS 3 Zrotation Xrotation Yrotation
                JOINT lRing2
                {
                  OFFSET 2.60934 -0.819778 -0.0198488
                  CHANNELS 3 Zrotation Xrotation Yrotation
                  End Site
                  {
                    OFFSET 2.33842 -0.294052 0.168128
                  }
                }
              }
              JOINT lPinky1
              {
                OFFSET 8.27202 -0.0477905 -0.4584
                CHANNELS 3 Zrotation Xrotation Yrotation
                JOINT lPinky2
                {
                  OFFSET 1.82734 -0.647385 -0.700984
                  CHANNELS 3 Zrotation Xrotation Yrotation
                  End Site
                  {
                    OFFSET 1.69225 -0.51767 -0.607171
                  }
                }
              }
            }
          }
        }
      }
    }
  }
  JOINT rButtock
  {
    OFFSET -8.77824 4.35084 1.2192
    CHANNELS 3 Zrotation Xrotation Yrotation
    JOINT rThigh
    {
      OFFSET 0 -1.70687 -2.19456
      CHANNELS 3 Zrotation Xrotation Yrotation
      JOINT rShin
      {
        OFFSET 0 -36.8199 0.73152
        CHANNELS 3 Zrotation Xrotation Yrotation
        JOINT rFoot
        {
          OFFSET 0.73152 -45.1104 -5.12064
          CHANNELS 3 Zrotation Xrotation Yrotation
          End Site
          {
            OFFSET -1.1221 -3.69964 12.103
          }
        }
      }
    }
  }
  JOINT lButtock
  {
    OFFSET 8.77824 4.35084 1.2192
    CHANNELS 3 Zrotation Xrotation Yrotation
    JOINT lThigh
    {
      OFFSET 0 -1.70687 -2.19456
      CHANNELS 3 Zrotation Xrotation Yrotation
      JOINT lShin
      {
        OFFSET 0 -36.8199 0.73152
        CHANNELS 3 Zrotation Xrotation Yrotation
        JOINT lFoot
        {
          OFFSET -0.73152 -45.1104 -5.12064
          CHANNELS 3 Zrotation Xrotation Yrotation
          End Site
          {
            OFFSET 1.1221 -3.69964 12.103
          }
        }
      }
    }
  }
}
MOTION
Frames:	8
Frame Time:	0.03333
65.4424 54.4189 6.661599999999999 2.099283 70.406559 3.728417 -7.709389 13.276224 -180.0 -7.934262 68.082567 -149.645198 -162.784115 -3.792292 174.905215 97.576931 -40.798976 41.814745 -54.126724 15.779162 -30.350378 -36.845833 7.725828 -22.918374 58.760619 16.370637 -53.334943 42.927109 -0.435498 34.949613 -179.717753 2.449581 72.254264 133.401776 -57.706151 124.660638 21.560348 25.028623 48.617895 -99.074702 -13.625281 95.050898 139.788047 13.938675 -4.822855 -167.771827 30.054489 111.404788 65.782272 62.343476 61.953814 -11.87062 -37.442995 -32.294636 115.128658 1.950486 3.178831 12.08629 59.190099 -11.829678 -10.300346 -36.869377 -141.747349 -140.666136 7.903307 -142.588563 -9.32242 58.694475 -2.445017 -57.861404 22.039402 12.102103 12.592966 -26.904421 -118.792472 -1.810746 -36.091327 42.553449 11.415455 55.619329 5.228254 111.051786 -37.409113 -139.413957 55.201458 -35.029232 119.564938 9.825305 63.713748 -49.195304 20.973276 -60.333665 56.903148 2.091038 -53.083183 9.132778 136.266398 -21.494084 160.54991 160.463478 45.743758 -177.401512 -89.97204 58.252724 51.642036 103.066625 -56.754048 64.112653 149.895597 71.817991 -0.0 -131.766203 1.566062 -0.0 85.779418 64.210685 137.989359 -162.259199 82.245371 -59.010402 60.296444 10.074623 24.769201 -97.999431 10.439847 -88.541301 -89.639189 24.052287 1.340353 115.219541 -21.311512 141.331709
64.7625 47.251599999999996 5.5339 -1.03008 69.050961 0.923432 -4.55434 14.6748 -170.875356 -3.475754 73.351437 -155.175987 -162.978655 -22.280481 121.264646 112.415892 17.196961 37.200564 -56.883493 18.401115 -33.298047 -39.092211 10.921119 -30.140239 131.68025 49.634265 -93.954767 -91.977132 41.230903 87.405215 -171.50151 -9.383326 -99.109185 -15.479023 58.124238 13.167436 140.597959 -22.057894 16.064154 -55.536389 27.28977 11.279571 -34.50113 -61.463596 122.371894 -58.953953 33.387895 64.295512 61.371948 59.605464 61.547031 -173.752057 10.957081 164.47513 15.216216 -76.206775 -115.969292 8.051401 29.775018 -10.839666 -16.092592 -3.42494 -159.41024 -8.569689 -41.396337 -23.537487 130.057014 76.097683 -155.731841 121.35494 -11.850621 -159.553599 90.432561 45.164862 120.554442 -42.863687 -56.447369 6.930655 -0.334064 20.470475 3.545322 -19.518998 -31.093629 54.556939 -80.022396 81.126518 63.234293 -156.23017 9.151001 -134.254728 11.14832 73.284645 -20.705966 9.884442 58.580453 -24.35274 133.014361 -2.04903 178.601265 178.026723 65.138032 158.589105 130.078831 28.970519 127.432571 174.827151 38.09728 100.302785 148.748442 71.967462 -0.0 -128.956796 -0.36546 -0.0 85.23536 49.537616 19.222087 -149.66358 -48.442261 177.087215 8.67006 3.93968 -11.878951 -45.374839 -29.439628 115.878806 96.58489 -35.045356 -172.93814 -144.88946 -15.057328 -143.30621
63.727000000000004 36.4197 4.5037 -3.747724 66.097627 -1.644697 -1.443803 21.731524 -0.0 50.436798 -71.488684 72.409899 176.303585 -39.404513 16.715712 -139.137836 40.888805 -73.950465 -69.506929 18.927177 -27.018631 -51.851411 11.664954 -23.733562 -148.817166 21.083103 -136.595095 -11.696382 -77.203995 16.4868 161.187535 76.596002 75.377529 149.571484 -38.589699 141.872062 4.363755 19.042394 50.129594 22.00004 -12.675812 9.954524 27.896264 35.304159 92.198578 31.256511 -42.102734 -24.545342 58.516994 60.97854 65.417711 -179.527652 -18.450022 174.052685 112.635701 4.908562 7.140138 4.822659 44.06775 32.429652 132.075371 -0.951281 26.421823 -162.263379 -23.356446 -136.905414 -11.052387 -41.743838 38.673129 40.630003 -39.158379 37.305945 81.194475 32.762948 106.756087 -63.733008 -54.709324 -21.522825 -3.472529 -8.25834 -3.385277 27.223613 -49.07851 128.107145 -13.17669 61.547415 -6.214733 -157.687907 1.918698 -130.439471 14.262381 54.489992 -36.590947 -3.736346 72.680238 -24.461716 111.584302 -74.747147 142.168319 -32.593319 31.149101 -7.461425 -28.482339 -30.007005 17.611181 89.925538 51.035822 -111.453208 -47.106558 4.569745 -10.551706 96.64306 -26.013113 -180.0 80.471938 -57.242858 -62.199981 137.85324 -54.078396 82.311208 7.421225 4.184157 -10.158902 -44.124102 -28.525845 -63.785101 -100.360292 35.845956 0.056152 132.881146 -25.950644 145.65068
62.66969999999999 32.3738 3.308 -5.806675 63.454141 -3.912674 1.506453 26.213643 0.0 60.114026 -67.071365 77.961445 170.67816 -29.978251 93.242633 142.089664 29.858871 18.429518 -75.630847 10.771345 -13.851775 -65.675916 8.175338 -12.637258 -68.864899 -26.713208 -100.958148 -90.967246 -52.39484 -109.455004 9.368764 34.669706 -137.05658 152.642994 -22.732655 149.242151 -92.338059 4.410034 71.181736 -68.655598 -10.676069 38.135744 117.735392 -19.80389 -7.630894 -76.636951 56.271034 63.426541 -38.129608 0.731426 145.065409 -137.747206 57.42178 160.959861 -44.662348 3.015249 174.783939 -92.301365 -58.616251 -92.648173 -19.08591 -45.120642 -149.586513 10.540459 -48.815127 -8.688785 108.948258 -19.831084 166.460036 111.146617 54.719851 -89.881629 176.574949 42.123307 73.548202 -7.303616 14.380761 24.773689 8.203544 3.194363 -3.216723 75.71886 -0.308572 -158.541214 -35.766284 76.084174 14.650242 -3.773323 -67.564826 -5.955467 -31.224749 -5.898098 14.156325 68.838898 -65.838509 111.595341 -7.142654 13.29343 1.032734 -12.697772 -20.721063 -25.052667 -10.272432 -41.57846 49.167998 81.2222 51.807559 -111.992429 63.165965 53.189436 46.834352 -90.344256 -28.028385 0.0 80.013902 51.719039 178.127769 -163.190702 8.248458 -52.524421 7.047479 2.912886 -9.49371 -46.074864 -29.583417 -180.0 -102.404966 -62.126326 148.373793 48.13425 -41.404333 20.669841
61.6715 35.23 1.5106 -5.383565 58.052319 -2.745086 0.547962 28.128735 162.583871 -79.401857 47.554108 -86.301942 162.51809 -34.031658 74.73368 147.746667 44.050862 -3.105423 -65.485941 7.120288 -11.052584 -62.819834 8.441035 -13.78148 -44.098377 -19.665345 -77.479259 38.248663 7.530524 -26.899438 -61.261248 85.431536 173.599993 16.147408 27.413146 3.747428 -156.398413 -26.450325 78.762426 -136.841595 9.986279 65.905142 102.946371 -83.858377 -34.21767 172.835287 -69.601986 97.663458 75.745143 62.330519 17.868785 -102.939417 77.014751 72.455624 -60.747532 -0.513743 178.997797 2.8887 30.808204 -25.54886 19.540171 -73.042774 -84.301509 13.319138 -5.413 16.756359 76.118099 -48.612268 140.669621 -156.714877 -25.470086 -173.80543 4.531978 -13.55535 -103.678145 -11.76332 -6.017012 16.264074 174.070807 -19.111312 -88.455595 154.709093 21.353229 -10.584965 28.408438 -40.447281 133.701631 -20.850624 63.39966 -6.496257 -4.325574 -59.635272 59.448611 160.294146 -62.081858 175.418062 143.171041 3.517227 176.739006 1.175074 0.950302 17.115753 -59.926566 5.317199 17.321261 16.181046 44.218707 -19.850201 64.811021 53.646601 47.036784 -92.722444 -26.143237 0.0 58.376981 39.015916 -40.43554 -56.121859 -1.522858 -68.640688 -86.08001 60.274704 -46.939141 88.606417 -3.804619 -180.0 90.926868 -40.888049 174.906045 115.838584 -13.391548 138.141499
60.8066 43.6203 -1.2841 -4.510449 51.647608 -0.908905 -0.93231 41.372185 -0.0 122.955507 -50.991132 137.040948 158.356307 -40.963225 122.457548 112.380549 8.645722 23.686361 -52.512784 2.97591 -6.02864 -56.375122 7.227744 -13.442624 127.475785 36.062244 -132.206786 -3.902968 -3.764934 53.683447 -7.863761 -63.918908 105.812844 25.063923 17.845623 4.079444 -21.807818 30.329802 22.680233 -112.670048 -24.170367 102.907608 61.405046 47.676739 5.076254 -155.326873 10.060866 92.185534 10.027407 -80.236308 -111.061685 -44.983449 45.215946 60.445309 77.571134 -1.0127 3.668474 -144.903622 -14.994087 168.010515 -53.144868 58.685555 -166.168506 -93.293498 -30.375063 -79.071006 55.099678 -45.609683 120.142474 30.317217 6.535583 -2.923159 -15.619466 4.791486 138.284681 -177.254986 24.104884 -130.946432 -0.642958 20.116507 -4.3399 -43.587905 68.890843 28.407682 -63.05437 -3.058083 73.974985 153.085577 -14.219812 -88.590887 -44.041874 -4.453447 43.791246 161.863087 -63.02676 -166.981257 151.54704 -45.414263 174.259737 32.602928 24.819067 1.899854 143.652436 49.832817 99.737908 34.844976 -31.781403 38.785011 68.994599 55.527715 48.138089 -96.640487 -22.880934 -15.262195 58.575912 45.095102 19.569018 -104.116217 -31.030968 -128.654501 6.92472 1.523586 -9.165401 -44.570119 -30.823634 -95.238823 -84.978271 7.547333 -39.838976 134.991719 -6.605291 126.876737
60.007200000000005 55.8964 -5.0555 -3.981592 45.852486 0.798985 -7.370115 46.762882 168.794595 -142.430336 11.297121 -34.196942 131.55049 -56.047444 176.85004 91.996783 -65.573906 21.952961 -45.647793 1.289266 -3.062866 -50.360314 10.246695 -21.593913 135.830992 6.573553 -155.409374 81.958271 -33.383568 91.270182 -2.651645 21.347906 121.128838 30.917447 17.177986 2.713652 5.403288 9.741568 4.018332 10.969441 18.151202 2.745248 -67.331156 -1.446714 139.044694 -161.942675 32.232522 128.376449 -63.171344 -63.372317 -177.093158 -72.397706 47.958319 89.386211 75.985071 -3.394379 6.709214 14.289855 27.602365 -1.006683 19.387308 -46.387266 -67.138946 -68.480275 -85.494708 -92.571464 -105.446548 54.891181 77.239447 -54.884246 34.761712 8.407641 -171.931319 -15.762596 -38.255169 179.120444 26.043202 -130.561304 62.202127 45.724079 -52.924842 -52.432397 11.407879 2.506947 71.900719 1.891215 165.4448 166.634458 -63.071611 -135.323912 153.473556 57.477546 154.290568 -7.846778 10.348373 -16.342801 64.952246 54.423804 -69.103615 -116.406556 -25.197328 -30.728151 132.429131 35.194106 96.317473 -104.324762 76.155735 81.36627 -21.404317 1.278009 -0.0 69.548145 -39.245534 76.724934 69.862339 34.599242 7.692211 86.62229 71.470358 119.833467 -27.057287 16.794185 -33.015627 15.027373 -42.027253 10.412445 -41.065967 67.093493 -51.860683 -79.157955 54.60477 -134.725404
59.1166 66.3364 -8.9185 -3.830729 38.135856 2.657953 -10.785609 48.754681 -165.782702 -153.509263 6.68191 -8.237049 86.093678 -80.475074 -28.815014 -153.844862 76.999117 -94.948546 -46.399849 1.258817 -2.936526 -35.002982 13.690274 -41.682612 126.789355 18.043702 -172.276001 -111.332381 6.963538 112.990582 116.002647 -53.136534 -107.364675 48.275735 59.701979 -47.949829 136.140539 -53.822931 54.495886 -89.490575 -71.911255 -101.115215 15.344507 67.431841 44.605363 -164.181643 6.758375 91.858125 -67.652578 -55.429756 -178.007314 -123.472282 -5.643451 123.510105 -67.260552 1.707424 179.756364 -144.179258 78.863663 162.765839 44.589772 -32.633076 -43.318362 -74.112711 42.232647 107.651876 -47.42911 27.589196 57.940792 93.592339 -44.183506 107.406201 -43.357564 15.476582 159.239332 165.09709 56.525568 -122.51559 11.621838 38.448934 -11.904096 -43.930328 -11.894039 28.788656 9.013305 -24.343019 122.757204 174.098074 -74.510683 -107.039466 -154.775838 68.002866 119.042763 156.114732 -19.766226 -106.069697 -161.9515 -81.099667 -165.588844 3.270116 54.249405 89.784945 133.358834 30.171551 97.312631 -106.377766 70.578138 90.300079 -104.449927 54.030133 -50.81657 178.741914 23.226685 -180.0 -52.284701 -77.410727 -120.062713 144.40676 -47.529611 159.464571 1.316758 5.550284 -13.368618 -34.591928 -43.547428 -105.518799 -63.746306 -5.04297 84.566051 57.34202 -12.390397 73.924821
